<?xml version="1.0" standalone="no"?><!DOCTYPE svg PUBLIC "-//W3C//DTD SVG 1.1//EN" "http://www.w3.org/Graphics/SVG/1.1/DTD/svg11.dtd"><svg t="1717643830556" class="icon" viewBox="0 0 1024 1024" version="1.1" xmlns="http://www.w3.org/2000/svg" p-id="3534" xmlns:xlink="http://www.w3.org/1999/xlink" width="256" height="256"><path d="M477.098667 191.317333l39.850666 39.424a42.666667 42.666667 0 1 0 59.989334-60.714666L430.592 25.344l-146.346667 144.682667a42.666667 42.666667 0 0 0 59.989334 60.714666l47.530666-47.018666V567.466667L167.893333 788.906667V737.28a42.197333 42.197333 0 0 0-12.586666-29.994667 43.264 43.264 0 0 0-60.672 0 42.197333 42.197333 0 0 0-12.586667 29.994667v205.141333h207.488c11.349333 0 22.272-4.48 30.293333-12.458666a42.069333 42.069333 0 0 0 0-59.989334 43.136 43.136 0 0 0-30.293333-12.416H219.733333l238.037334-235.349333h338.773333l-46.933333 46.378667a42.666667 42.666667 0 0 0 60.032 60.672l147.029333-145.365334-147.029333-145.408a42.666667 42.666667 0 0 0-60.032 60.672l38.186666 37.717334h-310.698666V191.317333z" p-id="3535" fill="#1296db"></path></svg>