<?xml version="1.0" standalone="no"?><!DOCTYPE svg PUBLIC "-//W3C//DTD SVG 1.1//EN" "http://www.w3.org/Graphics/SVG/1.1/DTD/svg11.dtd"><svg t="1717643086470" class="icon" viewBox="0 0 1024 1024" version="1.1" xmlns="http://www.w3.org/2000/svg" p-id="2223" xmlns:xlink="http://www.w3.org/1999/xlink" width="256" height="256"><path d="M934.656 420.8c-25.024-23.04-60.032-43.2-103.808-60.16a714.24 714.24 0 0 0-131.712-35.776 714.24 714.24 0 0 0-35.712-131.712c-17.024-43.84-37.248-78.72-60.224-103.808C568.768 51.84 534.592 44.032 512 44.032c-40.96 0-72.192 24.64-91.2 45.312-23.04 25.024-43.2 59.968-60.16 103.808a714.24 714.24 0 0 0-35.776 131.712 714.24 714.24 0 0 0-131.712 35.712c-43.84 17.024-78.72 37.248-103.808 60.224C51.84 455.232 44.032 489.408 44.032 512c0 40.96 24.64 72.192 45.312 91.2 25.024 23.04 59.968 43.2 103.808 60.16a714.24 714.24 0 0 0 131.712 35.776c8.64 48.256 20.608 92.8 35.712 131.712 17.024 43.84 37.248 78.72 60.224 103.808 34.432 37.504 68.608 45.376 91.2 45.376 40.96 0 72.192-24.704 91.2-45.44 23.04-24.96 43.2-59.968 60.16-103.744a714.24 714.24 0 0 0 35.776-131.712 714.24 714.24 0 0 0 131.712-35.712c43.84-17.024 78.72-37.248 103.808-60.224 37.504-34.432 45.376-68.608 45.376-91.2 0-40.96-24.704-72.192-45.44-91.2z m-508.8-202.304C450.816 153.984 483.84 113.92 512 113.92c28.16 0 61.184 40 86.144 104.512 11.2 28.8 20.48 61.184 27.776 96.192a1143.168 1143.168 0 0 0-227.84 0c7.296-35.008 16.64-67.456 27.776-96.192zM644.992 512c0.064 41.984-2.368 83.904-7.36 125.632-41.728 4.992-83.648 7.424-125.632 7.36-41.984 0.064-83.904-2.368-125.632-7.36a1072.832 1072.832 0 0 1 0-251.264 1072.832 1072.832 0 0 1 251.264 0c4.992 41.728 7.424 83.648 7.36 125.632zM218.496 598.144C153.984 573.184 113.92 540.16 113.92 512c0-28.16 40-61.184 104.512-86.144 28.8-11.2 61.184-20.48 96.192-27.776a1143.168 1143.168 0 0 0 0 227.84 613.312 613.312 0 0 1-96.192-27.776z m379.648 207.36C573.184 870.016 540.16 910.08 512 910.08c-28.16 0-61.184-40-86.144-104.512a613.312 613.312 0 0 1-27.776-96.192c37.824 3.84 75.84 5.76 113.92 5.696 38.08 0 76.096-1.92 113.92-5.696a613.312 613.312 0 0 1-27.776 96.192z m207.36-207.36c-28.8 11.2-61.184 20.48-96.192 27.776 3.84-37.824 5.76-75.84 5.696-113.92 0-38.08-1.92-76.096-5.696-113.92 35.008 7.296 67.456 16.64 96.192 27.776 64.512 24.96 104.512 57.984 104.512 86.144 0 28.16-40 61.184-104.512 86.144z" fill="#1296db" p-id="2224"></path></svg>